Coordinates
version=1
nRows=12
nColumns=24
inDegrees=yes

Units are S.I. units (second, meters, Newtons, ...)
Angles are in degrees.

endheader
time	pelvis_tilt	pelvis_list	pelvis_rotation	pelvis_tx	pelvis_ty	pelvis_tz	hip_flexion_r	hip_adduction_r	hip_rotation_r	knee_angle_r	ankle_angle_r	subtalar_angle_r	mtp_angle_r	hip_flexion_l	hip_adduction_l	hip_rotation_l	knee_angle_l	ankle_angle_l	subtalar_angle_l	mtp_angle_l	lumbar_extension	lumbar_bending	lumbar_rotation
      0.20000000	     -2.03451239	     -0.83387781	     -0.64452589	     -0.02999034	      0.98393786	     -0.03197899	     24.89783507	     -2.07307657	    -25.61263179	     -7.93353817	      7.73517510	      0.00000000	      0.00000000	     -6.70536538	      0.10651197	     -6.57281369	     -8.49206123	     19.95394910	      0.00000000	      0.00000000	    -18.74503262	     -1.64289249	     -3.96782760
      0.21000000	     -1.88250024	     -0.81963180	     -0.47303379	     -0.02923752	      0.98269782	     -0.03023110	     24.93359773	     -2.01373874	    -24.97108929	     -8.85227181	      7.80174915	      0.00000000	      0.00000000	     -7.26020885	     -0.01697129	     -6.33141349	     -8.78643833	     20.28147590	      0.00000000	      0.00000000	    -18.85071386	     -1.58791697	     -4.04368515
      0.22000000	     -1.70331997	     -0.85022016	     -0.22940281	     -0.02820528	      0.98152042	     -0.02850462	     24.85490119	     -1.91496130	    -24.32651176	     -9.75854919	      7.73717650	      0.00000000	      0.00000000	     -7.81772970	     -0.20478733	     -6.10716903	     -9.14758434	     20.56919816	      0.00000000	      0.00000000	    -18.93611134	     -1.45405428	     -4.17830451
      0.23000000	     -1.54102798	     -0.91222787	      0.09510777	     -0.02693870	      0.98037781	     -0.02675466	     24.73677474	     -1.80235868	    -23.68004967	    -10.68436499	      7.52533614	      0.00000000	      0.00000000	     -8.33785176	     -0.46010556	     -5.91494593	     -9.53922952	     20.76125548	      0.00000000	      0.00000000	    -18.97319216	     -1.27024902	     -4.39960815
      0.24000000	     -1.34716107	     -0.98353419	      0.43154697	     -0.02551985	      0.97939078	     -0.02495946	     24.56901815	     -1.68580528	    -22.99807584	    -11.67777591	      7.27406619	      0.00000000	      0.00000000	     -8.84275989	     -0.74011381	     -5.70732423	    -10.03322064	     20.92728339	      0.00000000	      0.00000000	    -19.01906477	     -1.07620890	     -4.58824886
      0.25000000	     -0.93738795	     -0.99459947	      0.57448516	     -0.02404965	      0.97875929	     -0.02301568	     24.25278962	     -1.58291715	    -22.12891056	    -12.86498667	      7.27996320	      0.00000000	      0.00000000	     -9.45291930	     -0.92510222	     -5.40009551	    -10.89015440	     21.39895812	      0.00000000	      0.00000000	    -19.31426033	     -0.98237328	     -4.57720169
      0.26000000	     -0.71143187	     -1.10849149	      0.88147420	     -0.02236891	      0.97813814	     -0.02114922	     24.05320198	     -1.43463830	    -21.47879680	    -13.97894233	      6.98221136	      0.00000000	      0.00000000	     -9.90167249	     -1.26913016	     -5.19830632	    -11.57419054	     21.36416517	      0.00000000	      0.00000000	    -19.35929069	     -0.73435830	     -4.74055321
      0.27000000	     -0.41821691	     -1.20380871	      1.10940107	     -0.02065162	      0.97784788	     -0.01922238	     23.79503616	     -1.29904305	    -20.81498043	    -15.14678273	      6.77620061	      0.00000000	      0.00000000	    -10.30982506	     -1.58776732	     -4.97361777	    -12.51519433	     21.34069170	      0.00000000	      0.00000000	    -19.48726166	     -0.52284589	     -4.77348311
      0.28000000	     -0.10284583	     -1.29674273	      1.27712908	     -0.01885773	      0.97783787	     -0.01720797	     23.50895542	     -1.15857034	    -20.19844907	    -16.33971397	      6.66679621	      0.00000000	      0.00000000	    -10.66009152	     -1.89898370	     -4.76632524	    -13.63242701	     21.24329443	      0.00000000	      0.00000000	    -19.63111866	     -0.32027761	     -4.79580676
      0.29000000	      0.19078817	     -1.41508081	      1.42806605	     -0.01703287	      0.97809991	     -0.01513794	     23.22479679	     -1.00476171	    -19.68031253	    -17.51547798	      6.56507432	      0.00000000	      0.00000000	    -10.93234239	     -2.24794996	     -4.58723234	    -14.82059591	     20.92754728	      0.00000000	      0.00000000	    -19.75534485	     -0.09430817	     -4.80103862
      0.30000000	      0.49950055	     -1.51787085	      1.50928552	     -0.01515984	      0.97867693	     -0.01295223	     22.88656910	     -0.84987515	    -19.24615851	    -18.63545774	      6.57346448	      0.00000000	      0.00000000	    -11.10750412	     -2.57707125	     -4.42747522	    -16.22975750	     20.45471292	      0.00000000	      0.00000000	    -19.90070816	      0.09462634	     -4.74682530
      0.31000000	      0.69197798	     -1.56650811	      1.66155100	     -0.01333076	      0.97927504	     -0.01080491	     22.62698665	     -0.78347552	    -18.96518138	    -19.70936636	      6.93493398	      0.00000000	      0.00000000	    -10.92608637	     -2.87542402	     -4.14317433	    -18.05797357	     20.03242895	      0.00000000	      0.00000000	    -19.91602103	      0.23782360	     -4.80348290
